<?xml version="1.0" encoding="UTF-8"?>
<svg xmlns="http://www.w3.org/2000/svg" viewBox="0 0 1200 630" width="1200" height="630">
  <defs>
    <linearGradient id="g72661" x1="63.78186779084995%" y1="1.9369152030840553%" x2="36.21813220915005%" y2="98.06308479691594%">
      <stop offset="0%" stop-color="#0D9488"/>
      <stop offset="100%" stop-color="#0F766E"/>
    </linearGradient>
  </defs>
  <rect width="1200" height="630" fill="url(#g72661)"/>
  <rect x="321.70465332455933" y="388.84911836124957" width="28" height="61.150881638750434" rx="3" fill="rgba(255,255,255,0.09076012331992388)"/><rect x="361.70465332455933" y="334.87928221933544" width="28" height="115.12071778066456" rx="3" fill="rgba(255,255,255,0.1311631043255329)"/><rect x="401.70465332455933" y="205.81918722949922" width="28" height="244.18081277050078" rx="3" fill="rgba(255,255,255,0.10042398234829306)"/><rect x="441.70465332455933" y="264.42714613862336" width="28" height="185.57285386137664" rx="3" fill="rgba(255,255,255,0.12393400408327579)"/><rect x="481.70465332455933" y="253.5807806160301" width="28" height="196.4192193839699" rx="3" fill="rgba(255,255,255,0.075645040422678)"/><rect x="521.7046533245593" y="363.6649740021676" width="28" height="86.33502599783242" rx="3" fill="rgba(255,255,255,0.06841258389875293)"/><rect x="561.7046533245593" y="319.8122795764357" width="28" height="130.18772042356431" rx="3" fill="rgba(255,255,255,0.07743377825245261)"/><path d="M 600 448.16731449682266 L 650 405.96181579399854 L 700 377.7580093231518 L 750 339.8843769170344 L 800 302.222976598423 L 850 286.37672521872446 L 900 255.70426642894745 L 950 215.77412526705302 L 1000 185.54494975949638 L 1050 163.97068187128752 L 1100 127.26504371967167" fill="none" stroke="rgba(255,255,255,0.18)" stroke-width="2.5"/><text x="770.2965127769858" y="138.80235976539552" font-family="sans-serif" font-size="71.078693382442" fill="rgba(255,255,255,0.07309832307975739)">$</text><text x="601.9687158055604" y="103.47724966704845" font-family="sans-serif" font-size="63.66701581515372" fill="rgba(255,255,255,0.07424481878289954)">¥</text><text x="552.1850771270692" y="252.6137102395296" font-family="sans-serif" font-size="82.53674395382404" fill="rgba(255,255,255,0.05697604379383847)">₹</text><text x="567.4798275809735" y="194.42278859205544" font-family="sans-serif" font-size="99.54858820419759" fill="rgba(255,255,255,0.06857456029392779)">$</text><text x="116.40468649566174" y="132.4782846029848" font-family="sans-serif" font-size="66.00007786881179" fill="rgba(255,255,255,0.06398953918600456)">₹</text><circle cx="1048.3892970951274" cy="276.29951981827617" r="69.79874622542411" fill="none" stroke="rgba(255,255,255,0.1)" stroke-width="2"/><line x1="1048.3892970951274" y1="276.29951981827617" x2="1005.2058218822549" y2="221.462922155945" stroke="rgba(255,255,255,0.1)" stroke-width="2"/><line x1="1048.3892970951274" y1="276.29951981827617" x2="1107.508955938476" y2="239.1951950988147" stroke="rgba(255,255,255,0.1)" stroke-width="2"/><line x1="1048.3892970951274" y1="276.29951981827617" x2="1108.1490007338648" y2="312.36394544314123" stroke="rgba(255,255,255,0.1)" stroke-width="2"/>
  <circle cx="1163.8798361644149" cy="47.60336386738345" r="2.3368235174566507" fill="rgba(255,255,255,0.03221285920124501)"/><circle cx="677.9906370677054" cy="269.3109371722676" r="1.6495434073731303" fill="rgba(255,255,255,0.035672185693401845)"/><circle cx="382.7604677528143" cy="464.66469649225473" r="2.619490317068994" fill="rgba(255,255,255,0.06975486322306096)"/><circle cx="611.5682328119874" cy="71.06940440135077" r="1.7859591781161726" fill="rgba(255,255,255,0.05223241056781262)"/><circle cx="238.58750369399786" cy="525.5279287160374" r="1.0759968082420528" fill="rgba(255,255,255,0.04288637748220935)"/><circle cx="1151.8987786956131" cy="233.09162445366383" r="1.788993668742478" fill="rgba(255,255,255,0.033938119229860605)"/><circle cx="613.9461449347436" cy="596.8463821546175" r="1.6581620257347822" fill="rgba(255,255,255,0.04261774154845625)"/><circle cx="676.1118058115244" cy="606.8610569299199" r="1.6990921054966748" fill="rgba(255,255,255,0.06364893510006368)"/><circle cx="1106.587951630354" cy="149.36958053614944" r="1.8409747988916934" fill="rgba(255,255,255,0.0680802572122775)"/><circle cx="1008.8399858213961" cy="492.2529277950525" r="2.0665050675161183" fill="rgba(255,255,255,0.07309819416375832)"/><circle cx="484.9410348571837" cy="152.36811044393107" r="1.8543647322803736" fill="rgba(255,255,255,0.06137401001295075)"/><circle cx="979.3450953438878" cy="425.8430937328376" r="1.362922593485564" fill="rgba(255,255,255,0.05101143748732284)"/><circle cx="333.26482409611344" cy="50.34091762499884" r="2.0516041587106884" fill="rgba(255,255,255,0.05629167623817921)"/><circle cx="389.0203982591629" cy="239.1420746454969" r="2.3241366841830313" fill="rgba(255,255,255,0.07540448187617585)"/><circle cx="510.14039162546396" cy="416.8541745794937" r="1.1967625585384667" fill="rgba(255,255,255,0.040721215105149894)"/><circle cx="181.0104033909738" cy="398.0049228784628" r="1.8809141647070646" fill="rgba(255,255,255,0.0360865081846714)"/><circle cx="176.35060977190733" cy="162.6680158940144" r="2.653829798102379" fill="rgba(255,255,255,0.031260448107495904)"/><circle cx="1097.2831087186933" cy="193.48289150046185" r="1.3558391872793436" fill="rgba(255,255,255,0.07624572143657132)"/><circle cx="824.7333216480911" cy="574.3972905236296" r="2.178683285135776" fill="rgba(255,255,255,0.03225458937929943)"/><circle cx="852.6439449749887" cy="276.1595073645003" r="1.159566033165902" fill="rgba(255,255,255,0.07673803052864969)"/>
  <text x="600" y="335" font-family="system-ui, -apple-system, 'Segoe UI', sans-serif" font-size="68" font-weight="700" fill="rgba(0,0,0,0.15)" text-anchor="middle" letter-spacing="1">GMAT Focus Edition</text>
  <text x="600" y="332" font-family="system-ui, -apple-system, 'Segoe UI', sans-serif" font-size="68" font-weight="700" fill="white" text-anchor="middle" letter-spacing="1">GMAT Focus Edition</text>
  <g transform="translate(1140, 575)">
    <rect x="0" y="0" width="40" height="40" rx="8" fill="rgba(255,255,255,0.15)"/>
    <text x="20" y="29" font-family="sans-serif" font-weight="bold" font-size="24" fill="rgba(255,255,255,0.6)" text-anchor="middle">K</text>
  </g>
</svg>